<?xml version="1.0" encoding="UTF-8"?>
<svg xmlns="http://www.w3.org/2000/svg" xmlns:xlink="http://www.w3.org/1999/xlink" width="64pt" height="64pt" viewBox="0 0 64 64" version="1.1">
<defs>
<radialGradient id="radial0" gradientUnits="userSpaceOnUse" cx="87.34375" cy="84.65625" fx="87.34375" fy="84.65625" r="82.011749" gradientTransform="matrix(0.372093,0,0,0.372093,0,0)">
<stop offset="0" style="stop-color:rgb(68.627453%,93.333334%,100%);stop-opacity:1;"/>
<stop offset="0.193" style="stop-color:rgb(73.333335%,94.509804%,100%);stop-opacity:1;"/>
<stop offset="0.703" style="stop-color:rgb(84.313726%,97.254902%,100%);stop-opacity:1;"/>
<stop offset="1" style="stop-color:rgb(88.235295%,98.039216%,100%);stop-opacity:1;"/>
</radialGradient>
<linearGradient id="linear0" gradientUnits="userSpaceOnUse" x1="86" y1="16.125" x2="86" y2="150.5" gradientTransform="matrix(0.372093,0,0,0.372093,0,0)">
<stop offset="0" style="stop-color:rgb(25.882354%,84.313726%,47.058824%);stop-opacity:1;"/>
<stop offset="0.996" style="stop-color:rgb(0%,67.450982%,58.823532%);stop-opacity:1;"/>
<stop offset="1" style="stop-color:rgb(0%,67.450982%,58.823532%);stop-opacity:1;"/>
</linearGradient>
</defs>
<g id="surface891631">
<path style=" stroke:none;fill-rule:nonzero;fill:url(#radial0);" d="M 59 20 L 60.5 20 C 62.667969 20 64.390625 18.003906 63.921875 15.757812 C 63.578125 14.121094 62.054688 13 60.386719 13 L 53 13 C 51.894531 13 51 12.105469 51 11 C 51 9.894531 51.894531 9 53 9 L 56.386719 9 C 58.054688 9 59.578125 7.878906 59.921875 6.242188 C 60.390625 3.996094 58.667969 2 56.5 2 L 8.5 2 C 6.574219 2 5 3.574219 5 5.5 C 5 7.425781 6.574219 9 8.5 9 L 10 9 C 11.105469 9 12 9.894531 12 11 C 12 12.105469 11.105469 13 10 13 L 4.613281 13 C 2.945312 13 1.421875 14.121094 1.078125 15.757812 C 0.609375 18.003906 2.332031 20 4.5 20 L 18 20 L 18 32 L 4.613281 32 C 2.945312 32 1.421875 33.121094 1.078125 34.757812 C 0.609375 37.003906 2.332031 39 4.5 39 L 5 39 C 6.105469 39 7 39.894531 7 41 C 7 42.105469 6.105469 43 5 43 L 4.5 43 C 2.332031 43 0.609375 44.996094 1.078125 47.242188 C 1.421875 48.878906 2.945312 50 4.613281 50 L 10 50 C 11.105469 50 12 50.894531 12 52 C 12 53.105469 11.105469 54 10 54 L 8.613281 54 C 6.945312 54 5.421875 55.121094 5.078125 56.757812 C 4.609375 59.003906 6.332031 61 8.5 61 L 55.5 61 C 57.425781 61 59 59.425781 59 57.5 C 59 55.574219 57.425781 54 55.5 54 L 55 54 C 53.894531 54 53 53.105469 53 52 C 53 50.894531 53.894531 50 55 50 L 59.386719 50 C 61.054688 50 62.578125 48.878906 62.921875 47.242188 C 63.390625 44.996094 61.667969 43 59.5 43 L 47 43 L 47 31 L 59.386719 31 C 61.054688 31 62.578125 29.878906 62.921875 28.242188 C 63.390625 25.996094 61.667969 24 59.5 24 L 59 24 C 57.894531 24 57 23.105469 57 22 C 57 20.894531 57.894531 20 59 20 Z M 59 20 "/>
<path style=" stroke:none;fill-rule:nonzero;fill:url(#linear0);" d="M 57 31 C 57 44.804688 45.804688 56 32 56 C 18.195312 56 7 44.804688 7 31 C 7 17.195312 18.195312 6 32 6 C 45.804688 6 57 17.195312 57 31 Z M 57 31 "/>
<path style=" stroke:none;fill-rule:nonzero;fill:rgb(100%,100%,100%);fill-opacity:1;" d="M 32 18 C 33.65625 18 35 19.34375 35 21 L 35 41 C 35 42.65625 33.65625 44 32 44 C 30.34375 44 29 42.65625 29 41 L 29 21 C 29 19.34375 30.34375 18 32 18 Z M 32 18 "/>
<path style=" stroke:none;fill-rule:nonzero;fill:rgb(100%,100%,100%);fill-opacity:1;" d="M 45 31 C 45 32.65625 43.65625 34 42 34 L 22 34 C 20.34375 34 19 32.65625 19 31 C 19 29.34375 20.34375 28 22 28 L 42 28 C 43.65625 28 45 29.34375 45 31 Z M 45 31 "/>
</g>
</svg>
